<?xml version="1.0" standalone="no"?>
<!DOCTYPE svg PUBLIC "-//W3C//DTD SVG 20010904//EN"
 "http://www.w3.org/TR/2001/REC-SVG-20010904/DTD/svg10.dtd">
<svg version="1.0" xmlns="http://www.w3.org/2000/svg"
 width="750.000000pt" height="500.000000pt" viewBox="0 0 750.000000 500.000000"
 preserveAspectRatio="xMidYMid meet">

<g transform="translate(0.000000,500.000000) scale(0.100000,-0.100000)"
fill="#000000" stroke="none">
<path d="M3295 3433 c-63 -9 -135 -35 -174 -63 -83 -61 -64 -17 -554 -1260
-179 -452 -207 -525 -207 -533 0 -4 76 -7 169 -7 123 0 171 3 178 13 6 6 88
210 183 452 357 908 399 1014 411 1033 15 24 51 42 84 42 61 0 67 -13 355
-780 150 -399 277 -733 282 -742 8 -16 27 -18 178 -18 93 0 171 3 173 8 2 4
-45 135 -104 292 -60 157 -200 524 -310 815 -111 292 -212 550 -224 575 -30
58 -88 114 -145 139 -75 33 -199 47 -295 34z"/>
<path d="M4602 2508 l3 -933 158 -3 157 -3 0 936 0 935 -160 0 -160 0 2 -932z"/>
</g>
</svg>
